<svg width="580" height="100" viewBox="0 0 580 100" fill="none" xmlns="http://www.w3.org/2000/svg">
<path d="M126.651 71.4268C127.65 71.4268 128.488 72.2697 128.424 73.2676C127.479 88.1895 115.09 99.9999 99.9473 100H37.4463C36.4477 99.9998 35.6099 99.1589 35.6738 98.1611C36.619 83.2371 49.0082 71.4268 64.1514 71.4268H126.651Z" fill="#191919"/>
<path d="M1.83594 0.0595703C16.7399 1.00783 28.5371 13.4116 28.5371 28.5713V98.1943C28.5371 99.1922 27.6949 100.033 26.6982 99.9688C11.7964 99.0205 0 86.6167 0 71.457V1.83398C0 0.871266 0.780215 0.0546875 1.73145 0.0546875C1.76628 0.0547022 1.8011 0.0575186 1.83594 0.0595703Z" fill="#191919"/>
<path fill-rule="evenodd" clip-rule="evenodd" d="M466.891 25.2354C481.54 25.2356 491.863 35.7419 491.863 50C491.863 64.2582 481.54 74.7644 466.891 74.7646C452.241 74.7646 441.917 64.2583 441.917 50C441.917 35.7417 452.241 25.2354 466.891 25.2354ZM466.891 32.6377C457.147 32.6377 449.992 39.6986 449.992 50C449.992 60.3015 457.147 67.3623 466.891 67.3623C476.634 67.3621 483.788 60.3013 483.788 50C483.788 39.6988 476.634 32.6379 466.891 32.6377Z" fill="#191919"/>
<path d="M270.276 25.2354C277.874 25.2354 284.416 28.1006 288.743 32.9443L283.087 38.4365C280.089 34.855 275.592 32.6377 270.277 32.6377C260.534 32.6377 253.379 39.6986 253.379 50C253.379 60.3015 260.533 67.3623 269.937 67.3623C275.788 67.3623 280.016 65.3195 282.528 61.5781V54.9805H272.321V47.8174L277.912 47.8613H283.581L286.769 47.9307L289.965 47.9561C289.965 47.9706 289.965 47.9855 289.965 48L289.977 48.001L289.965 48.2764C289.965 58.2192 289.977 58.224 289.977 64.5547C286.046 70.7053 278.717 74.7305 269.936 74.7305C257.637 74.7304 245.304 65.9297 245.304 50C245.304 35.6394 255.797 25.2354 270.276 25.2354Z" fill="#191919"/>
<path d="M416.365 25.3037C423.315 25.3037 428.801 27.2487 433.604 30.4551L429.687 36.6973C425.632 34.1048 421.135 32.6035 416.297 32.6035C409.926 32.6036 405.566 35.3666 405.565 39.7324C405.565 43.6892 409.279 45.2244 415.479 46.1113L418.784 46.5547C426.518 47.6121 434.149 50.8188 434.149 59.6875C434.149 69.409 425.36 74.7304 415.037 74.7305C408.564 74.7305 400.796 72.5812 395.855 68.3174L400.046 62.1777C403.317 65.1795 409.484 67.4307 415.003 67.4307C421.237 67.4306 426.143 64.7702 426.144 60.3701C426.144 56.6179 422.395 54.878 415.411 53.9229L411.698 53.4111C404.612 52.4219 397.56 49.0788 397.56 40.21C397.56 30.6251 406.042 25.3038 416.365 25.3037Z" fill="#191919"/>
<path d="M164.39 66.5781H190.793V73.8779H156.689V26.123H164.39V66.5781Z" fill="#191919"/>
<path fill-rule="evenodd" clip-rule="evenodd" d="M241.761 73.8779H233.481L228.78 61.7002H207.18L202.479 73.8779H194.473L213.312 26.123H222.92L241.761 73.8779ZM210.008 54.4004H225.952L217.98 33.7979L210.008 54.4004Z" fill="#191919"/>
<path fill-rule="evenodd" clip-rule="evenodd" d="M344.207 73.8779H335.928L331.227 61.7002H309.626L304.925 73.8779H296.919L315.759 26.123H325.366L344.207 73.8779ZM312.454 54.4004H328.398L320.427 33.7979L312.454 54.4004Z" fill="#191919"/>
<path fill-rule="evenodd" clip-rule="evenodd" d="M371.326 26.123C382.296 26.1231 388.225 31.0347 388.225 39.9375C388.225 48.0558 382.023 53.445 372.313 53.7861L388.02 73.8779H378.48L363.285 53.7861H359.401V73.8779H351.702V26.123H371.326ZM359.401 46.7939H371.121C377.322 46.7939 380.218 44.5424 380.218 39.9375C380.218 35.4008 377.151 33.3545 371.121 33.3545H359.401V46.7939Z" fill="#191919"/>
<path d="M536.255 33.4219H509.92V46.1797H534.688V53.4795H509.92V73.8779H502.22V26.123H536.255V33.4219Z" fill="#191919"/>
<path d="M580 33.4219H564.566V73.8779H556.867V33.4219H541.434V26.123H580V33.4219Z" fill="#191919"/>
<path d="M99.9473 35.7148C115.091 35.7149 127.479 47.5241 128.424 62.4482C128.488 63.446 127.65 64.2842 126.651 64.2842H64.1514C49.008 64.2842 36.6189 52.4758 35.6738 37.5537C35.6099 36.558 36.4477 35.715 37.4463 35.7148H99.9473Z" fill="#191919"/>
<path d="M114.156 0C122.036 5.95097e-05 128.425 6.39642 128.425 14.2861C128.425 22.1758 122.036 28.5722 114.156 28.5723C106.276 28.5723 99.8878 22.1758 99.8877 14.2861C99.8877 6.39639 106.276 0 114.156 0Z" fill="#191919"/>
<path d="M92.4736 0.000976562C93.4701 0.00106379 94.3098 0.84011 94.248 1.83984C93.3009 16.7599 80.912 28.5713 65.7666 28.5713H37.4463C36.4477 28.5711 35.6099 27.7301 35.6738 26.7344C36.6189 11.8123 49.008 0.000976562 64.1514 0.000976562H92.4736Z" fill="#191919"/>
</svg>
