<svg width="121" height="100" viewBox="0 0 121 100" fill="none" xmlns="http://www.w3.org/2000/svg">
<path d="M60.4606 18.8519C50.9138 18.8519 43.1037 26.2489 42.5079 35.5943C42.4676 36.218 42.9958 36.7446 43.6254 36.7446H61.4791C71.0271 36.7446 78.8372 29.3476 79.4343 20.0034C79.4734 19.3772 78.9439 18.8519 78.3156 18.8519H60.4606ZM20.0181 19.9996V63.6036C20.0181 73.0979 27.4549 80.8662 36.8494 81.4601C37.4777 81.5002 38.0084 80.9736 38.0084 80.3487V36.7446C38.0084 27.2503 30.5716 19.482 21.1758 18.8881C21.1537 18.8869 21.1316 18.8856 21.1095 18.8856C20.5098 18.8856 20.0181 19.3966 20.0181 19.9996ZM43.6254 41.2187C42.9958 41.2187 42.4676 41.7466 42.5079 42.3702C43.1037 51.7157 50.9138 59.1114 60.4606 59.1114H99.8624C100.492 59.1114 101.02 58.5861 100.98 57.9612C100.384 48.6144 92.5739 41.2187 83.0272 41.2187H43.6254ZM60.4606 63.5842C50.9138 63.5842 43.1037 70.9812 42.5079 80.328C42.4676 80.9529 42.9958 81.4795 43.6254 81.4795H83.0272C92.5739 81.4795 100.384 74.0825 100.98 64.7371C101.02 64.1121 100.492 63.5842 99.8624 63.5842H60.4606Z" fill="#191919"/>
<path d="M100.981 27.7976C100.981 22.8564 96.9532 18.8507 91.9854 18.8507C87.0176 18.8507 82.9902 22.8564 82.9902 27.7976C82.9902 32.7389 87.0176 36.7446 91.9854 36.7446C96.9532 36.7446 100.981 32.7389 100.981 27.7976Z" fill="#191919"/>
</svg>
